<?xml version="1.0" standalone="no"?>
<!DOCTYPE svg PUBLIC "-//W3C//DTD SVG 20010904//EN"
 "http://www.w3.org/TR/2001/REC-SVG-20010904/DTD/svg10.dtd">
<svg version="1.0" xmlns="http://www.w3.org/2000/svg"
 width="128.000000pt" height="128.000000pt" viewBox="0 0 128.000000 128.000000"
 preserveAspectRatio="xMidYMid meet">
<metadata>
Created by potrace 1.14, written by Peter Selinger 2001-2017
</metadata>
<g transform="translate(0.000000,128.000000) scale(0.100000,-0.100000)"
fill="#000000" stroke="none">
<path d="M571 963 c1 -110 6 -193 11 -200 25 -30 85 -4 72 31 -3 9 -2 16 3 16
4 0 9 -32 9 -71 0 -58 3 -74 18 -85 13 -9 24 -10 37 -3 17 8 19 26 22 172 l3
162 2 -191 c2 -204 4 -210 51 -197 13 3 21 14 21 27 1 11 2 95 2 186 l2 165 3
-150 c3 -137 5 -152 23 -163 17 -10 23 -9 38 6 16 16 18 34 16 137 -1 66 1
123 3 127 2 4 15 2 28 -4 20 -9 28 -8 44 6 16 14 18 31 17 114 l-1 97 -213 3
-212 2 1 -187z m342 43 c1 -31 -1 -56 -4 -56 -4 0 -7 27 -7 60 0 76 9 72 11
-4z m-249 -56 c-6 -6 -10 -3 -10 10 0 13 4 16 10 10 7 -7 7 -13 0 -20z m2 -60
c0 -22 -2 -40 -6 -40 -3 0 -6 18 -6 40 0 22 2 40 6 40 3 0 6 -18 6 -40z"/>
<path d="M482 668 c-8 -8 -13 -67 -14 -197 l-2 -186 -6 159 c-5 152 -6 159
-27 167 -38 14 -46 -11 -48 -154 -2 -73 -3 -133 -4 -135 0 -2 -8 4 -17 12 -46
46 -73 0 -71 -121 l1 -93 212 0 212 0 0 182 c0 101 -5 191 -10 201 -11 22 -64
23 -72 1 -3 -9 -4 -20 0 -25 3 -5 1 -9 -5 -9 -6 0 -9 24 -7 61 3 50 0 65 -15
80 -15 15 -24 17 -39 9 -18 -10 -20 -24 -23 -173 l-3 -162 -2 193 c-1 108 -6
192 -11 192 -5 0 -15 2 -23 5 -7 3 -19 0 -26 -7z m152 -243 c3 -8 1 -15 -4
-15 -6 0 -10 7 -10 15 0 8 2 15 4 15 2 0 6 -7 10 -15z m0 -60 c3 -8 1 -15 -4
-15 -6 0 -10 7 -10 15 0 8 2 15 4 15 2 0 6 -7 10 -15z m6 -57 c0 -19 -16 -5
-17 14 -2 18 0 20 7 8 5 -8 10 -18 10 -22z m-253 -33 c0 -19 -2 -33 -5 -30 -8
8 -10 65 -3 65 4 0 8 -16 8 -35z m0 -60 c0 -8 -4 -12 -9 -9 -4 3 -8 9 -8 15 0
5 4 9 8 9 5 0 9 -7 9 -15z"/>
</g>
</svg>
